HIERARCHY
ROOT Hips
{
	OFFSET 0.000000 100.481300 0.000000
	CHANNELS 6 Xposition Yposition Zposition Xrotation Yrotation Zrotation
	JOINT Spine
	{
		OFFSET -0.279200 12.230698 -2.892100
		CHANNELS 3 Xrotation Yrotation Zrotation
		JOINT Spine1
		{
			OFFSET -0.325700 14.269203 -3.374200
			CHANNELS 3 Xrotation Yrotation Zrotation
			JOINT Spine2
			{
				OFFSET -0.372300 16.307602 -0.352600
				CHANNELS 3 Xrotation Yrotation Zrotation
				JOINT Neck
				{
					OFFSET -0.418800 17.814194 8.416900
					CHANNELS 3 Xrotation Yrotation Zrotation
					JOINT Head
					{
						OFFSET 0.000000 7.031097 3.806800
						CHANNELS 3 Xrotation Yrotation Zrotation
						JOINT HeadTop_End
						{
							OFFSET 0.000000 24.646606 12.978600
							CHANNELS 3 Xrotation Yrotation Zrotation
							End Site
							{
								OFFSET 0.000000 27.854965 0.000000
							}
						}
					}
				}
				JOINT LeftShoulder
				{
					OFFSET 16.952999 14.495407 -7.737500
					CHANNELS 3 Xrotation Yrotation Zrotation
					JOINT LeftArm
					{
						OFFSET 9.308998 -2.777710 0.208600
						CHANNELS 3 Xrotation Yrotation Zrotation
						JOINT LeftForeArm
						{
							OFFSET 29.972298 0.000000 0.000000
							CHANNELS 3 Xrotation Yrotation Zrotation
							JOINT LeftHand
							{
								OFFSET 26.026505 0.000000 0.000000
								CHANNELS 3 Xrotation Yrotation Zrotation
								JOINT LeftHandThumb1
								{
									OFFSET 12.240501 -7.147949 9.207150
									CHANNELS 3 Xrotation Yrotation Zrotation
									JOINT LeftHandThumb2
									{
										OFFSET 4.138618 -2.389435 2.389433
										CHANNELS 3 Xrotation Yrotation Zrotation
										JOINT LeftHandThumb3
										{
											OFFSET 2.726913 -1.574387 1.574386
											CHANNELS 3 Xrotation Yrotation Zrotation
											JOINT LeftHandThumb4
											{
												OFFSET 3.941010 -2.275345 2.275342
												CHANNELS 3 Xrotation Yrotation Zrotation
												End Site
												{
													OFFSET -0.005798 5.087799 0.009903
												}
											}
										}
									}
								}
								JOINT LeftHandIndex1
								{
									OFFSET 24.424698 -1.985611 5.953459
									CHANNELS 3 Xrotation Yrotation Zrotation
									JOINT LeftHandIndex2
									{
										OFFSET 6.426697 0.000000 0.000000
										CHANNELS 3 Xrotation Yrotation Zrotation
										JOINT LeftHandIndex3
										{
											OFFSET 5.337898 0.000000 0.000000
											CHANNELS 3 Xrotation Yrotation Zrotation
											JOINT LeftHandIndex4
											{
												OFFSET 4.409401 0.000000 0.000000
												CHANNELS 3 Xrotation Yrotation Zrotation
												End Site
												{
													OFFSET 0.000000 4.409363 0.014373
												}
											}
										}
									}
								}
								JOINT LeftHandMiddle1
								{
									OFFSET 23.810104 0.000000 0.000000
									CHANNELS 3 Xrotation Yrotation Zrotation
									JOINT LeftHandMiddle2
									{
										OFFSET 7.176498 0.000000 0.000000
										CHANNELS 3 Xrotation Yrotation Zrotation
										JOINT LeftHandMiddle3
										{
											OFFSET 6.774902 0.000000 0.000000
											CHANNELS 3 Xrotation Yrotation Zrotation
											JOINT LeftHandMiddle4
											{
												OFFSET 5.403328 0.000000 0.000000
												CHANNELS 3 Xrotation Yrotation Zrotation
												End Site
												{
													OFFSET -0.027702 5.403244 0.017414
												}
											}
										}
									}
								}
								JOINT LeftHandRing1
								{
									OFFSET 22.908401 -0.839279 -6.020567
									CHANNELS 3 Xrotation Yrotation Zrotation
									JOINT LeftHandRing2
									{
										OFFSET 6.337502 0.000000 0.000000
										CHANNELS 3 Xrotation Yrotation Zrotation
										JOINT LeftHandRing3
										{
											OFFSET 5.779297 0.000000 0.000000
											CHANNELS 3 Xrotation Yrotation Zrotation
											JOINT LeftHandRing4
											{
												OFFSET 4.965698 0.000000 0.000000
												CHANNELS 3 Xrotation Yrotation Zrotation
												End Site
												{
													OFFSET 0.000000 4.965668 0.016186
												}
											}
										}
									}
								}
								JOINT LeftHandPinky1
								{
									OFFSET 20.037003 -1.530319 -10.950146
									CHANNELS 3 Xrotation Yrotation Zrotation
									JOINT LeftHandPinky2
									{
										OFFSET 5.254700 0.000000 0.000000
										CHANNELS 3 Xrotation Yrotation Zrotation
										JOINT LeftHandPinky3
										{
											OFFSET 4.810204 0.000000 0.000000
											CHANNELS 3 Xrotation Yrotation Zrotation
											JOINT LeftHandPinky4
											{
												OFFSET 3.647202 0.000000 0.000000
												CHANNELS 3 Xrotation Yrotation Zrotation
												End Site
												{
													OFFSET 0.000000 3.647186 0.011889
												}
											}
										}
									}
								}
							}
						}
					}
				}
				JOINT RightShoulder
				{
					OFFSET -15.141001 14.495407 -7.737500
					CHANNELS 3 Xrotation Yrotation Zrotation
					JOINT RightArm
					{
						OFFSET -9.308998 -2.777710 0.208500
						CHANNELS 3 Xrotation Yrotation Zrotation
						JOINT RightForeArm
						{
							OFFSET -29.972300 0.000000 0.000000
							CHANNELS 3 Xrotation Yrotation Zrotation
							JOINT RightHand
							{
								OFFSET -26.026505 0.000000 0.000000
								CHANNELS 3 Xrotation Yrotation Zrotation
								JOINT RightHandThumb1
								{
									OFFSET -12.240601 -7.148026 9.207092
									CHANNELS 3 Xrotation Yrotation Zrotation
									JOINT RightHandThumb2
									{
										OFFSET -4.138618 -2.389435 2.389433
										CHANNELS 3 Xrotation Yrotation Zrotation
										JOINT RightHandThumb3
										{
											OFFSET -2.726974 -1.574417 1.574421
											CHANNELS 3 Xrotation Yrotation Zrotation
											JOINT RightHandThumb4
											{
												OFFSET -3.941010 -2.275345 2.275343
												CHANNELS 3 Xrotation Yrotation Zrotation
												End Site
												{
													OFFSET 0.005814 5.087799 0.009927
												}
											}
										}
									}
								}
								JOINT RightHandIndex1
								{
									OFFSET -24.424698 -1.985657 5.953444
									CHANNELS 3 Xrotation Yrotation Zrotation
									JOINT RightHandIndex2
									{
										OFFSET -6.426697 0.000000 0.000000
										CHANNELS 3 Xrotation Yrotation Zrotation
										JOINT RightHandIndex3
										{
											OFFSET -5.337898 0.000000 0.000000
											CHANNELS 3 Xrotation Yrotation Zrotation
											JOINT RightHandIndex4
											{
												OFFSET -4.409401 0.000000 0.000000
												CHANNELS 3 Xrotation Yrotation Zrotation
												End Site
												{
													OFFSET 0.000000 4.409363 0.014408
												}
											}
										}
									}
								}
								JOINT RightHandMiddle1
								{
									OFFSET -23.810097 0.000000 0.000000
									CHANNELS 3 Xrotation Yrotation Zrotation
									JOINT RightHandMiddle2
									{
										OFFSET -7.176498 0.000000 0.000000
										CHANNELS 3 Xrotation Yrotation Zrotation
										JOINT RightHandMiddle3
										{
											OFFSET -6.774902 0.000000 0.000000
											CHANNELS 3 Xrotation Yrotation Zrotation
											JOINT RightHandMiddle4
											{
												OFFSET -5.403328 0.000000 0.000000
												CHANNELS 3 Xrotation Yrotation Zrotation
												End Site
												{
													OFFSET 0.027702 5.403244 0.017457
												}
											}
										}
									}
								}
								JOINT RightHandRing1
								{
									OFFSET -22.908302 -0.839325 -6.020576
									CHANNELS 3 Xrotation Yrotation Zrotation
									JOINT RightHandRing2
									{
										OFFSET -6.337502 0.000000 0.000000
										CHANNELS 3 Xrotation Yrotation Zrotation
										JOINT RightHandRing3
										{
											OFFSET -5.779297 0.000000 0.000000
											CHANNELS 3 Xrotation Yrotation Zrotation
											JOINT RightHandRing4
											{
												OFFSET -4.965698 0.000000 0.000000
												CHANNELS 3 Xrotation Yrotation Zrotation
												End Site
												{
													OFFSET 0.000000 4.965668 0.016226
												}
											}
										}
									}
								}
								JOINT RightHandPinky1
								{
									OFFSET -20.037003 -1.530334 -10.950259
									CHANNELS 3 Xrotation Yrotation Zrotation
									JOINT RightHandPinky2
									{
										OFFSET -5.254700 0.000000 0.000000
										CHANNELS 3 Xrotation Yrotation Zrotation
										JOINT RightHandPinky3
										{
											OFFSET -4.810204 0.000000 0.000000
											CHANNELS 3 Xrotation Yrotation Zrotation
											JOINT RightHandPinky4
											{
												OFFSET -3.647202 0.000000 0.000000
												CHANNELS 3 Xrotation Yrotation Zrotation
												End Site
												{
													OFFSET 0.000000 3.647186 0.011917
												}
											}
										}
									}
								}
							}
						}
					}
				}
			}
		}
	}
	JOINT LeftUpLeg
	{
		OFFSET 15.427100 -6.655098 0.678600
		CHANNELS 3 Xrotation Yrotation Zrotation
		JOINT LeftLeg
		{
			OFFSET 4.081073 -39.591068 13.024000
			CHANNELS 3 Xrotation Yrotation Zrotation
			JOINT LeftFoot
			{
				OFFSET -4.081074 -37.707932 -15.979700
				CHANNELS 3 Xrotation Yrotation Zrotation
				JOINT LeftToeBase
				{
					OFFSET 5.346399 -15.068900 20.645000
					CHANNELS 3 Xrotation Yrotation Zrotation
					JOINT LeftToe_End
					{
						OFFSET 2.754700 0.931300 11.300900
						CHANNELS 3 Xrotation Yrotation Zrotation
						End Site
						{
							OFFSET 0.000000 11.669021 0.000000
						}
					}
				}
			}
		}
	}
	JOINT RightUpLeg
	{
		OFFSET -15.569500 -6.655098 0.678600
		CHANNELS 3 Xrotation Yrotation Zrotation
		JOINT RightLeg
		{
			OFFSET -4.081825 -39.591045 13.023800
			CHANNELS 3 Xrotation Yrotation Zrotation
			JOINT RightFoot
			{
				OFFSET 4.081824 -37.707954 -15.979600
				CHANNELS 3 Xrotation Yrotation Zrotation
				JOINT RightToeBase
				{
					OFFSET -5.346400 -15.068900 20.645000
					CHANNELS 3 Xrotation Yrotation Zrotation
					JOINT RightToe_End
					{
						OFFSET -2.754700 0.931300 11.300900
						CHANNELS 3 Xrotation Yrotation Zrotation
						End Site
						{
							OFFSET 0.000000 11.669021 0.000000
						}
					}
				}
			}
		}
	}
}
MOTION
Frames: 4
Frame Time: 0.033333
-1.464945 67.854080 -28.752190 20.591721 37.806043 -15.334094 4.892323 -6.420341 1.917193 9.742537 -12.484383 2.330624 9.742536 -12.484379 2.330625 -2.139989 5.530601 -6.687559 -5.779211 0.130588 -0.836895 -0.000000 0.000001 -0.000000 3.439447 -25.202189 -12.563746 -75.409619 -33.183320 -54.664032 85.057159 -23.490265 58.610796 0.068004 -0.278615 -4.671970 -19.315522 1.097423 1.562411 11.990741 36.141499 1.214000 0.000003 -0.000010 -0.000003 0.000001 0.000001 0.000000 -1.932891 -15.724738 -21.922090 -8.196002 -1.716465 -85.057343 -0.000001 0.000001 0.000000 -0.000001 0.000002 -0.000001 -1.256981 2.294121 -21.432355 -7.606208 -5.075729 -65.727464 -0.000002 0.000016 0.000004 -0.000001 0.000003 0.000002 -1.492151 12.888313 -15.487831 -1.157863 -5.517808 -75.171040 -0.000007 0.000010 0.000001 -0.000000 -0.000001 -0.000000 -0.559567 15.163143 -11.222016 0.572774 -7.450808 -62.407575 0.000000 0.000003 -0.000001 -0.000000 0.000001 0.000000 -2.220920 12.614259 9.005163 -61.939816 29.156083 61.642758 70.613398 32.461546 -53.837545 5.697199 -11.386795 -17.302573 -22.958853 -10.655241 -8.606203 22.010085 -13.657111 1.730578 0.000004 -0.000012 -0.000004 -0.000001 -0.000000 0.000002 -9.447326 7.468389 25.682939 -4.584283 0.935896 63.248720 0.000000 0.000000 -0.000001 0.000000 -0.000001 0.000000 -9.235287 -5.288189 24.193459 -5.465800 2.146490 67.008083 -0.000002 0.000006 0.000000 -0.000001 -0.000001 0.000001 -5.928315 -4.088122 31.086937 -1.218678 6.014122 60.941810 0.000003 0.000000 0.000001 0.000003 0.000000 0.000001 -0.389915 -12.678290 38.438262 -1.148591 10.652938 65.590088 -0.000001 -0.000000 0.000000 -0.000002 0.000000 0.000000 -41.603215 12.077222 22.310004 74.781952 6.240455 -11.358061 -45.713288 5.090440 -6.180314 1.026698 -0.676211 -2.486435 -0.000000 -0.000000 0.000000 -74.939244 5.508218 0.405573 64.417590 -10.221456 -4.198548 -4.413699 -1.176909 11.891481 -0.459344 -3.479383 0.892472 -0.000000 0.000001 0.000000 
-1.091209 67.810875 -28.359810 21.226744 38.728474 -14.791504 4.787906 -6.463876 2.060256 9.500527 -12.687584 2.322749 9.500535 -12.687580 2.322746 -2.898336 3.925986 -5.633120 -6.159949 -3.052356 2.297846 0.000001 0.000000 -0.000000 3.451915 -25.848482 -14.575823 -73.002776 -32.102910 -53.342500 88.673006 -24.652934 65.599336 1.105091 1.129578 -7.325031 -20.227607 -1.074372 1.173510 10.766863 33.883076 1.635111 0.000003 -0.000008 -0.000003 0.000002 0.000001 0.000001 -2.216318 -15.525906 -19.988721 -7.965864 -1.673049 -83.139071 -0.000003 0.000001 -0.000000 -0.000002 0.000001 -0.000001 -1.186963 2.286526 -19.655526 -7.374798 -4.969360 -63.365454 0.000000 0.000015 0.000004 -0.000001 -0.000000 -0.000002 -1.337990 13.101052 -13.601062 -1.049539 -5.508862 -73.430852 -0.000007 0.000007 -0.000000 -0.000001 -0.000000 -0.000000 -0.520224 15.414810 -8.852846 0.613108 -7.429105 -60.176098 -0.000000 -0.000000 0.000001 0.000000 0.000001 0.000001 -1.894913 11.312587 7.895065 -59.405632 24.152396 63.240585 78.353423 30.965875 -63.833876 5.374512 -11.640527 -15.557509 -23.085701 -9.253622 -8.087129 21.169022 -11.875669 1.702458 0.000003 -0.000011 -0.000005 0.000000 0.000000 -0.000001 -9.177601 7.266097 24.107060 -4.435420 0.856461 61.555065 0.000000 0.000000 0.000001 0.000002 -0.000000 0.000000 -9.055293 -5.485800 22.592251 -5.323042 2.085507 65.263236 -0.000000 0.000007 -0.000000 0.000001 0.000002 0.000003 -5.691289 -4.245579 29.409012 -1.086277 5.936524 59.164806 0.000000 0.000001 0.000001 0.000001 0.000001 0.000001 -0.273008 -12.875046 36.526660 -1.019801 10.569626 63.557991 -0.000002 0.000000 0.000000 -0.000002 0.000000 -0.000001 -40.692959 12.716252 21.231066 73.007653 4.571337 -11.640318 -45.421475 5.170806 -6.933954 0.730964 -0.607509 -1.231835 0.000000 0.000000 0.000000 -75.271314 7.794013 0.798702 64.990049 -12.274938 -6.699693 -4.548030 -1.444141 15.231897 -0.287519 -2.125971 0.564706 -0.000000 -0.000000 0.000000 
-0.732306 67.925446 -28.152163 21.665280 39.159964 -14.485552 4.718625 -6.445077 2.363422 9.371086 -12.666414 2.783468 9.371081 -12.666411 2.783458 -3.204602 2.710794 -4.833853 -5.908508 -6.147376 4.366765 -0.000001 0.000001 0.000001 3.456795 -26.529594 -16.245830 -70.709540 -30.850141 -52.720181 90.228800 -24.749467 71.429538 2.212803 1.348123 -9.100016 -21.149985 -3.199206 0.716240 9.641188 31.648361 2.129771 0.000003 -0.000008 -0.000003 -0.000003 0.000001 0.000001 -2.264439 -15.304763 -17.625373 -7.745075 -1.619526 -81.286471 0.000003 0.000001 0.000001 0.000004 -0.000001 0.000001 -1.099416 2.497386 -17.348875 -7.138655 -4.855185 -60.909032 0.000001 0.000016 0.000005 0.000001 -0.000000 0.000003 -1.277962 13.275223 -11.229169 -0.933902 -5.483160 -71.478107 -0.000005 0.000009 -0.000001 0.000001 0.000002 -0.000002 -0.542047 15.429063 -6.178172 0.654275 -7.404192 -57.900511 -0.000000 0.000001 0.000000 -0.000001 0.000002 -0.000003 -1.626130 10.774672 6.673625 -57.303470 20.986069 64.264622 83.439906 28.560581 -71.167361 5.131933 -11.580069 -14.409413 -23.166327 -7.970079 -7.653586 20.446188 -10.449173 1.789248 0.000003 -0.000012 -0.000004 0.000000 0.000000 -0.000001 -8.897550 7.156294 22.083989 -4.308143 0.783491 60.129099 -0.000003 -0.000003 -0.000002 -0.000001 0.000000 -0.000001 -8.985280 -5.583458 20.704846 -5.194933 2.027004 63.667267 0.000001 0.000008 0.000002 0.000000 -0.000000 0.000000 -5.546009 -4.371360 27.458107 -0.972078 5.865537 57.600228 0.000001 0.000000 -0.000001 0.000002 -0.000000 0.000003 -0.266593 -13.075630 34.244185 -0.915512 10.515899 62.004990 0.000001 0.000000 -0.000000 -0.000001 -0.000001 -0.000001 -39.822786 13.444999 20.393219 71.556094 3.315160 -11.984541 -45.847720 5.187162 -7.141498 1.564849 -0.583079 -0.062005 -0.000000 -0.000001 -0.000000 -75.212083 8.763572 0.029884 65.104803 -12.787539 -7.303378 -4.636066 -1.567416 16.443143 -0.006504 -1.213947 -0.004821 -0.000000 -0.000002 0.000000 
-0.481449 68.338402 -28.017044 21.461014 38.691393 -13.815938 4.620587 -6.289124 2.522007 9.205433 -12.256914 3.178255 9.205424 -12.256909 3.178252 -2.942692 1.984294 -4.107512 -4.358891 -8.563023 5.794971 0.000003 0.000000 0.000000 3.461596 -26.798415 -16.884193 -68.240543 -29.279795 -52.786096 90.295251 -24.490193 75.114746 2.876562 0.982698 -9.171631 -21.573777 -4.154244 0.484583 9.192893 30.575758 2.611183 0.000002 -0.000008 -0.000002 -0.000003 0.000001 0.000000 -2.025223 -15.146991 -15.844338 -7.623441 -1.591476 -80.353077 0.000000 0.000003 0.000001 -0.000003 0.000002 0.000001 -0.999468 2.790054 -15.148972 -7.042782 -4.794190 -59.866007 -0.000000 0.000015 0.000006 -0.000000 -0.000003 -0.000001 -1.380040 13.348196 -9.242641 -0.874733 -5.463849 -70.425964 -0.000006 0.000007 0.000001 0.000000 -0.000001 0.000001 -0.603346 15.250002 -4.567499 0.668584 -7.392689 -56.810361 0.000001 0.000000 -0.000002 0.000001 0.000001 -0.000002 -1.355732 10.755492 5.819007 -55.618719 19.378271 64.919971 85.887867 26.358757 -75.186702 5.069430 -11.317931 -13.746204 -23.169330 -7.468520 -7.404103 20.207854 -9.885920 1.870668 0.000003 -0.000012 -0.000002 -0.000000 -0.000000 0.000000 -8.762217 7.156359 20.816941 -4.249067 0.747553 59.523924 -0.000002 -0.000002 -0.000001 0.000000 0.000001 -0.000000 -8.987375 -5.587680 19.600976 -5.141112 2.001811 62.982397 0.000001 0.000007 0.000000 -0.000002 -0.000002 -0.000001 -5.542551 -4.418171 26.297275 -0.925633 5.833246 56.932205 0.000001 0.000000 -0.000002 0.000001 0.000000 -0.000002 -0.297638 -13.241370 32.704821 -0.860177 10.489342 61.187259 -0.000001 0.000002 -0.000003 -0.000000 0.000000 -0.000002 -38.677917 14.679557 20.203005 70.262655 2.813344 -12.526471 -46.081418 5.085303 -6.812578 1.817676 -0.539202 -0.008201 -0.000000 -0.000000 -0.000000 -74.607925 8.112801 -1.011476 64.869647 -11.566195 -6.463139 -5.103172 -1.488069 15.113236 -0.000055 -0.487085 -0.000031 -0.000000 -0.000002 0.000000 
